 <svg
                xmlns="http://www.w3.org/2000/svg"
                viewBox="0 0 90 90"
                id="videoplayer"
              >
                <path
                  fill="#ecb665"
                  d="M88.21,10.63H11.79A5.84,5.84,0,0,0,6,16.46v43a5.84,5.84,0,0,0,5.83,5.84H88.21A5.84,5.84,0,0,0,94,59.5v-43A5.84,5.84,0,0,0,88.21,10.63ZM63.48,41.39,39.29,52.82a3.24,3.24,0,0,1-1.39.31,3.28,3.28,0,0,1-1.73-.5,3.23,3.23,0,0,1-1.5-2.74V26.07a3.2,3.2,0,0,1,1.55-2.76,3.27,3.27,0,0,1,1.69-.48,3.19,3.19,0,0,1,1.47.36L63.57,35.58a3.24,3.24,0,0,1-.09,5.81Z"
                  className="colorec6568 svgShape"
                ></path>
                <path
                  fill="#333333"
                  d="M88.21,7.67H11.79A8.8,8.8,0,0,0,3,16.46v43a8.8,8.8,0,0,0,8.79,8.8H88.21A8.8,8.8,0,0,0,97,59.5v-43A8.8,8.8,0,0,0,88.21,7.67ZM94,59.5a5.84,5.84,0,0,1-5.83,5.84H11.79A5.84,5.84,0,0,1,6,59.5v-43a5.84,5.84,0,0,1,5.83-5.83H88.21A5.84,5.84,0,0,1,94,16.46Z"
                  className="color333333 svgShape"
                ></path>
                <path
                  fill="#f69c16"
                  d="M62.22,38.22,38,25.82a.3.3,0,0,0-.12,0,.46.46,0,0,0-.15,0,.26.26,0,0,0-.13.24V49.89a.25.25,0,0,0,.13.24.22.22,0,0,0,.26,0L62.21,38.71c.08,0,.16-.07.16-.25A.22.22,0,0,0,62.22,38.22Z"
                  className="colorfecb37 svgShape"
                ></path>
                <path
                  fill="#333333"
                  d="M63.57,35.58,39.38,23.19a3.19,3.19,0,0,0-1.47-.36,3.27,3.27,0,0,0-1.69.48,3.2,3.2,0,0,0-1.55,2.76V49.89a3.23,3.23,0,0,0,1.5,2.74,3.28,3.28,0,0,0,1.73.5,3.24,3.24,0,0,0,1.39-.31L63.48,41.39a3.24,3.24,0,0,0,.09-5.81Zm-1.36,3.13L38,50.14a.22.22,0,0,1-.26,0,.25.25,0,0,1-.13-.24V26.07a.26.26,0,0,1,.13-.24.46.46,0,0,1,.15,0,.3.3,0,0,1,.12,0l24.19,12.4a.22.22,0,0,1,.15.24C62.37,38.64,62.29,38.68,62.21,38.71Z"
                  className="color333333 svgShape"
                ></path>
                <path
                  fill="#ecb665"
                  d="M21.81,73.06H20.39a3.15,3.15,0,0,0-3.14,3.14v10a3.15,3.15,0,0,0,3.14,3.16h1.42A3.16,3.16,0,0,0,25,86.21v-10A3.15,3.15,0,0,0,21.81,73.06Z"
                  className="colorec6568 svgShape"
                ></path>
                <path
                  fill="#333333"
                  d="M27.92,76.2a6.12,6.12,0,0,0-6.11-6.11H20.39a6.13,6.13,0,0,0-6.11,6.11v3.53H7.49v3h6.79v3.52a6.12,6.12,0,0,0,6.11,6.12h1.42a6.12,6.12,0,0,0,6.11-6.12V82.69H92.51v-3H27.92Zm-3,10a3.16,3.16,0,0,1-3.15,3.16H20.39a3.15,3.15,0,0,1-3.14-3.16v-10a3.15,3.15,0,0,1,3.14-3.14h1.42A3.15,3.15,0,0,1,25,76.2Z"
                  className="color333333 svgShape"
                ></path>
              </svg>